<svg xmlns="http://www.w3.org/2000/svg" viewBox="0 0 27 27"><path d="M1 1h7v7h-7zM10 1h1v1h-1zM12 1h2v3h-1v1h1v1h-1v1h-1v1h1v-1h1v2h-3v-2h-1v2h-1v-6h1v3h1v-1h1v-2h1v-1h-1zM15 1h1v1h1v1h-1v1h-1zM19 1h7v7h-7zM2 2v5h5v-5zM11 2h1v1h-1zM20 2v5h5v-5zM3 3h3v3h-3zM21 3h3v3h-3zM14 4h1v1h-1zM17 4h1v1h-1zM15 5h1v1h1v1h-1v1h1v-1h1v5h-2v-1h1v-1h-1v-1h-1zM1 9h1v1h1v-1h5v1h-4v3h-2v-2h-1zM14 9h1v1h-1zM19 9h5v1h-3v1h2v1h-1v2h-1v-1h-1v-1h-1v-1h1v-1h-1zM8 10h1v1h-1zM10 10h1v1h-1zM13 10h1v1h-1zM15 10h1v1h-1zM24 10h1v1h1v3h-1v1h1v2h-1v-1h-1v-2h-1v-1h2v-1h-1zM6 11h2v1h-2zM9 11h1v1h-1zM11 11h2v2h2v1h-1v1h-1v-1h-1v2h-1v1h-2v-1h1v-1h1v-2h1v-1h-1zM8 12h1v1h-1zM10 12h1v1h-1zM15 12h1v1h-1zM18 12h1v1h1v1h-2v2h1v-1h1v1h2v-2h1v3h-1v1h1v-1h1v2h2v1h-3v1h1v1h2v4h-7v-1h1v-2h1v1h2v1h2v-2h-1v1h-1v-2h-1v1h-1v-1h-1v1h-2v-1h-1v1h1v1h1v1h-4v-1h1v-1h-1v-1h1v-1h1v-2h-1v-1h1v-2h-1v-1h1v-1h-1v-1h2zM4 13h1v1h-1zM6 13h2v1h-1v1h-1zM1 14h3v1h-2v3h-1zM15 14h1v1h-1zM20 14h1v1h-1zM5 15h1v1h-1zM7 15h2v1h-2zM4 16h1v1h-1zM5 17h1v1h-1zM7 17h2v1h-2zM11 17h1v1h2v-1h1v2h1v2h-1v-1h-1v-1h-3zM9 18h1v1h-1zM18 18v3h3v-3zM1 19h7v7h-7zM19 19h1v1h-1zM2 20v5h5v-5zM9 20h3v1h-2v1h4v3h-2v-1h1v-1h-1v1h-1v-1h-1v1h-1zM13 20h1v1h-1zM3 21h3v3h-3zM14 21h1v1h-1zM9 25h2v1h-2zM14 25h1v1h-1z"/></svg>