<svg xmlns="http://www.w3.org/2000/svg" viewBox="0 0 31 31"><path d="M1 1h7v7h-7zM14 1h3v1h1v1h-1v2h1v-1h1v2h-3v-1h-1v-1h1v-1h-1v1h-1v-1h-1v1h1v2h-1v-1h-1v-1h-1v-1h1v-1h2zM18 1h2v1h-2zM21 1h1v3h-1v2h-1v-3h1zM23 1h7v7h-7zM2 2v5h5v-5zM10 2h1v1h-1zM24 2v5h5v-5zM3 3h3v3h-3zM9 3h1v1h1v3h-1v2h-1zM25 3h3v3h-3zM19 6h1v2h-1zM11 7h1v1h-1zM13 7h1v1h-1zM15 7h1v2h-1zM17 7h1v3h-1zM21 7h1v1h-1zM1 9h1v1h1v-1h5v1h-1v1h2v1h2v-1h-2v-1h1v-1h1v1h2v1h-1v1h1v1h1v1h-1v1h-1v-2h-3v1h1v1h-1v2h-1v-1h-1v1h1v1h-2v-2h-1v-1h-1v-2h-2v-1h-1zM13 9h1v1h-1zM21 9h1v1h-1zM23 9h5v1h-2v2h-1v-1h-1v1h-1v1h-1v-1h-1v-1h1v-1h1zM4 10v1h1v1h1v1h-1v1h2v1h1v-1h-1v-1h1v-1h-2v-2zM14 10h3v1h1v-1h3v1h-2v1h-2v2h1v1h-2v-1h-1v-1h1v-1h-1v1h-1zM29 10h1v1h-1zM24 12h1v1h-1zM28 12h1v1h-1zM18 13h1v1h-1zM21 13h1v1h-1zM26 13h2v3h-1v-2h-1zM1 14h1v1h-1zM20 14h1v1h-1zM22 14h4v3h-1v-1h-1v1h-1v-2h-1zM29 14h1v1h-1zM3 15h1v1h-1zM10 15h2v1h-2zM21 15h1v3h-1zM4 16h1v2h1v1h-2v-1h-1v-1h1zM15 16h1v1h-1zM17 16h1v1h1v1h-2zM28 16h1v1h-1zM9 17h3v2h-3zM27 17h1v3h-2v-1h-1v1h-1v-1h-1v-1h4zM1 18h2v1h-1v3h-1zM14 18h3v1h2v1h-2v2h1v-1h1v1h2v-3h2v1h-1v1h1v-1h1v1h1v-1h1v2h1v-1h1v-1h1v1h1v2h-2v1h-1v1h-1v1h-4v3h-4v-1h-1v2h-4v-2h1v1h1v-1h1v-1h-1v1h-1v-1h-2v-2h1v1h4v1h1v-1h1v-3h-3v-1h-1v-1h1v-1h-1v1h-3v-2h2zM19 18h2v1h-2zM29 18h1v1h-1zM7 19h1v1h-1zM3 20h1v1h-1zM5 20h1v2h-2v-1h1zM9 20h2v1h-1v1h1v1h1v2h-1v-1h-1v-1h-1zM19 20h1v1h-1zM7 21h1v1h-1zM13 22h1v1h-1zM22 22v3h3v-3zM1 23h7v7h-7zM23 23h1v1h-1zM2 24v5h5v-5zM9 24h1v1h1v1h-1v1h1v1h-2zM13 24h1v1h-1zM15 24h1v1h-1zM17 24h1v2h-1zM20 24v3h-1v1h2v-4zM28 24h1v1h-1zM3 25h3v3h-3zM27 25h1v2h-2v-1h1zM29 25h1v1h-1zM23 27h3v1h-1v2h-1v-2h-1zM28 27h1v2h-1zM11 28h1v2h-1zM26 28h1v1h-1zM9 29h1v1h-1zM22 29h1v1h-1zM27 29h1v1h-1z"/></svg>