<svg xmlns="http://www.w3.org/2000/svg" viewBox="0 0 31 31"><path d="M1 1h7v7h-7zM10 1h2v1h-2zM16 1h6v3h-1v2h-1v2h-1v-3h1v-1h-1v-1h2v-1h-2v1h-1v-1h-2zM23 1h7v7h-7zM2 2v5h5v-5zM12 2h2v1h-2zM24 2v5h5v-5zM3 3h3v3h-3zM9 3h1v3h1v1h-1v1h1v-1h1v1h1v1h-1v1h1v1h-2v-2h-2zM15 3h1v1h-1zM17 3h1v1h1v1h-2zM25 3h3v3h-3zM11 4h2v1h-1v1h-1zM14 5h3v1h1v2h-1v-1h-1v1h-1v-1h-1v1h-1v-1h-1v-1h2zM21 7h1v1h-1zM14 8h1v1h-1zM16 8h1v2h1v1h-2v-1h-1v-1h1zM1 9h1v1h-1zM3 9h5v1h-3v3h-1v-3h-1zM18 9h1v1h-1zM21 9h1v1h-1zM23 9h5v1h-2v2h-1v-1h-1v1h-1v1h-1v-1h-1v-1h1v-1h1zM8 10h2v1h-1v1h1v1h1v-1h2v-1h1v2h-1v2h-1v-1h-5v-1h1v-1h-2v-1h2zM20 10h1v1h-1zM29 10h1v1h-1zM2 11h1v1h-1zM10 11h1v1h-1zM1 12h1v1h2v3h1v1h-2v2h-1v3h-1v-7h1v-1h-1zM15 12h1v1h-1zM17 12h1v1h1v1h-2zM19 12h1v1h-1zM24 12h1v1h-1zM28 12h1v1h-1zM5 13h1v1h-1zM21 13h1v1h-1zM26 13h2v3h-1v-2h-1zM6 14h1v1h-1zM14 14h3v1h1v1h-1v2h1v-1h1v1h2v1h-5v-1h-1v-1h1v-1h-1v1h-1v5h-2v-1h1v-3h-1v3h-1v-4h2v-1h1zM19 14h2v1h-1v1h-1zM22 14h4v3h-1v-1h-1v1h-1v-2h-1zM29 14h1v1h-1zM5 15h1v1h-1zM7 15h1v1h-1zM10 15h2v1h-1v1h-1v1h-1v-1h-1v-1h2zM21 15h1v3h-1zM28 16h1v1h-1zM7 17h1v1h-1zM27 17h1v3h-2v-1h-1v1h-1v-1h-1v-1h4zM4 18h2v2h1v1h1v-1h-1v-1h2v1h1v1h-1v1h-3v-1h-2v-1h1v-1h-1zM29 18h1v1h-1zM3 19h1v1h-1zM21 19h2v1h-1v1h1v-1h1v1h1v-1h1v2h1v-1h1v-1h1v1h1v2h-2v1h-1v1h-1v1h-4v3h-2v-1h1v-4h-1v-1h-1v1h1v1h-2v-1h-1v2h1v1h-2v-1h-1v-1h1v-1h-1v1h-1v-1h-1v-1h1v-1h3v1h1v-1h1v-2h1v2h1zM15 20h1v1h-1zM17 20h1v2h-1zM3 21h1v1h-1zM9 22h1v1h-1zM11 22h1v2h-1zM22 22v3h3v-3zM1 23h7v7h-7zM23 23h1v1h-1zM2 24v5h5v-5zM9 24h1v1h3v1h-2v1h1v1h-3zM29 24h1v2h-2v1h-2v-1h1v-1h2zM3 25h3v3h-3zM19 26h1v2h-1zM15 27h1v1h-1zM23 27h3v1h-1v2h-1v-2h-1zM28 27h1v2h-1zM12 28h2v1h-1v1h-1zM17 28h1v2h-1zM26 28h1v1h-1zM9 29h1v1h-1zM14 29h1v1h-1zM19 29h1v1h-1zM22 29h1v1h-1zM27 29h1v1h-1z"/></svg>