<svg xmlns="http://www.w3.org/2000/svg" viewBox="0 0 31 31"><path d="M1 1h7v7h-7zM10 1h1v2h-2v-1h1zM13 1h2v1h-1v1h1v-1h2v-1h1v1h1v1h-1v1h-1v-1h-1v1h1v1h-1v1h-1v-1h-3v1h3v1h-1v1h-1v-1h-1v1h-1v-2h-2v-1h1v-1h1v-1h2zM23 1h7v7h-7zM2 2v5h5v-5zM20 2h2v1h-1v1h-1zM24 2v5h5v-5zM3 3h3v3h-3zM25 3h3v3h-3zM19 4h1v1h2v1h-1v1h-1v-1h-1v1h-1v-2h1zM9 7h1v1h-1zM15 7h1v2h1v2h-2v-2h-1v-1h1zM17 7h1v1h1v-1h1v1h1v1h-4zM21 7h1v1h-1zM12 8h1v1h-1zM1 9h1v2h-1zM3 9h1v1h-1zM5 9h1v1h-1zM7 9h1v1h-1zM10 9h2v1h-2zM13 9h1v2h1v1h-1v2h1v1h-2v1h-1v-1h-2v-2h-1v-1h1v-1h1v1h1v2h1v-3h-1v-1h1zM25 9h1v1h-1zM28 9h1v1h-1zM6 10h1v1h1v1h-2zM8 10h1v1h-1zM19 10h1v2h-1zM22 10h2v1h-2zM26 10h1v1h-1zM29 10h1v2h-1v1h1v3h-1v1h1v3h-1v1h-1v-2h1v-1h-1v-3h1v-1h-1v-2h-1v-1h2zM3 11h2v1h-1v1h-1zM25 11h1v1h1v2h1v1h-2v-2h-1zM16 12h1v1h-1zM18 12h1v1h-1zM20 12h1v1h-1zM22 12h1v1h1v2h-1v1h-1zM1 13h2v1h1v1h1v-2h3v1h-2v2h-1v1h-1v-1h-1v1h1v1h-1v1h-1v-2h-1v-1h1v-2h-1zM17 13h1v1h2v2h-1v-1h-1v1h1v2h-1v-1h-1v-1h-1v1h1v2h-2v-2h-1v-1h1v-1h1v-1h1zM8 14h1v2h-2v-1h1zM24 15h2v1h-1v1h-1v2h1v2h1v2h1v1h-1v5h-1v-1h-1v-2h-2v1h-2v-1h1v-1h-1v1h-1v-1h-2v-1h-1v1h1v2h-3v-1h1v-1h-1v-1h1v-1h1v-1h1v-1h1v2h1v1h1v-1h1v-2h-1v-1h2v1h1v-3h-1v-1h1v-1h1zM9 16h2v1h-1v1h-1zM20 16h2v1h-2zM26 16h1v1h-1zM5 17h3v1h-1v1h1v-1h1v2h1v1h-2v-1h-2v-2h-1zM11 17h1v3h-2v-2h1zM4 18h1v3h-1v1h-1v-1h-1v-1h1v-1h1zM13 18h1v1h-1zM27 18h1v1h-1zM1 19h1v1h-1zM14 19h1v1h-1zM18 19h2v1h-1v1h-1zM26 19h1v2h-1zM12 20h2v2h-1v3h1v1h-1v1h-1v1h-1v-1h-1v-1h2v-1h-1v-1h1v-2h-1v-1h1zM16 20h1v1h-1zM1 21h1v1h-1zM5 21h3v1h-3zM9 22h2v2h-1v-1h-1zM14 22h1v1h-1zM22 22v3h3v-3zM27 22h3v2h-1v2h-1v-3h-1zM1 23h7v7h-7zM23 23h1v1h-1zM2 24v5h5v-5zM3 25h3v3h-3zM9 25h1v1h-1zM27 26h1v2h-1zM9 27h1v1h-1zM18 27h1v1h-1zM22 27h1v1h-1zM29 27h1v1h-1zM10 28h1v1h-1zM14 28h3v1h-2v1h-4v-1h3zM21 28h1v2h-1zM28 28h1v1h1v1h-2zM9 29h1v1h-1zM17 29h1v1h-1zM23 29h2v1h-2z"/></svg>